999
DXF created from QGIS
  0
SECTION
  2
HEADER
  9
$ACADVER
  1
AC1015
  9
$EXTMIN
 10
138650.0
 20
6589520.0
 30
0.0
  9
$EXTMAX
 10
138780.0
 20
6589640.0
 30
0.0
  9
$LTSCALE
 40
1.0
  9
$PDMODE
 70
    33
  9
$PDSIZE
 40
     1
  9
$PSLTSCALE
 70
     0
  9
$HANDSEED
  5
9999999
  9
$DWGCODEPAGE
  3
8859_1
  0
ENDSEC
  0
SECTION
  2
TABLES
  0
TABLE
  2
LTYPE
  5
64
100
AcDbSymbolTable
 70
     5
  0
LTYPE
  5
65
100
AcDbSymbolTableRecord
100
AcDbLinetypeTableRecord
  2
ByLayer
 70
    64
  3
Defaultstyle
 72
    65
 73
     0
 40
0.0
  0
LTYPE
  5
66
100
AcDbSymbolTableRecord
100
AcDbLinetypeTableRecord
  2
ByBlock
 70
    64
  3
Defaultstyle
 72
    65
 73
     0
 40
0.0
  0
LTYPE
  5
67
100
AcDbSymbolTableRecord
100
AcDbLinetypeTableRecord
  2
CONTINUOUS
 70
    64
  3
Defaultstyle
 72
    65
 73
     0
 40
0.0
  0
LTYPE
  5
68
100
AcDbSymbolTableRecord
100
AcDbLinetypeTableRecord
  2
DASH
 70
    64
  3

 72
    65
 73
     2
 40
0.0026
 49
0.002
 74
     0
 49
-0.0006
 74
     0
  0
LTYPE
  5
69
100
AcDbSymbolTableRecord
100
AcDbLinetypeTableRecord
  2
DOT
 70
    64
  3

 72
    65
 73
     2
 40
0.0012
 49
0.0006
 74
     0
 49
-0.0006
 74
     0
  0
LTYPE
  5
6a
100
AcDbSymbolTableRecord
100
AcDbLinetypeTableRecord
  2
DASHDOT
 70
    64
  3

 72
    65
 73
     4
 40
0.0038
 49
0.002
 74
     0
 49
-0.0006
 74
     0
 49
0.0006
 74
     0
 49
-0.0006
 74
     0
  0
LTYPE
  5
6b
100
AcDbSymbolTableRecord
100
AcDbLinetypeTableRecord
  2
DASHDOTDOT
 70
    64
  3

 72
    65
 73
     6
 40
0.005
 49
0.002
 74
     0
 49
-0.0006
 74
     0
 49
0.0006
 74
     0
 49
-0.0006
 74
     0
 49
0.0006
 74
     0
 49
-0.0006
 74
     0
  0
ENDTAB
  0
TABLE
  2
BLOCK_RECORD
  5
6c
100
AcDbSymbolTable
 70
     0
  0
BLOCK_RECORD
  5
6d
100
AcDbSymbolTableRecord
100
AcDbBlockTableRecord
  2
*Model_Space
  0
BLOCK_RECORD
  5
6e
100
AcDbSymbolTableRecord
100
AcDbBlockTableRecord
  2
*Paper_Space
  0
BLOCK_RECORD
  5
6f
100
AcDbSymbolTableRecord
100
AcDbBlockTableRecord
  2
*Paper_Space0
  0
ENDTAB
  0
TABLE
  2
APPID
  5
70
100
AcDbSymbolTable
 70
     1
  0
APPID
  5
71
100
AcDbSymbolTableRecord
100
AcDbRegAppTableRecord
  2
ACAD
 70
     0
  0
ENDTAB
  0
TABLE
  2
VIEW
  5
72
100
AcDbSymbolTable
 70
     0
  0
ENDTAB
  0
TABLE
  2
UCS
  5
73
100
AcDbSymbolTable
 70
     0
  0
ENDTAB
  0
TABLE
  2
VPORT
  5
74
100
AcDbSymbolTable
  0
VPORT
  5
75
100
AcDbSymbolTableRecord
100
AcDbViewportTableRecord
  2
*ACTIVE
 70
     0
 10
0.0
 20
0.0
 11
1.0
 21
1.0
 12
0.0
 22
0.0
 13
0.0
 23
0.0
 14
1.0
 24
1.0
 15
1.0
 25
1.0
 16
0.0
 26
0.0
 36
1.0
 17
138715.0
 27
6589580.0
 40
120.0
 41
1.08333333333333326
 42
50.0
 43
0.0
 44
0.0
 50
0.0
 51
0.0
 71
     0
 72
   100
 73
     1
 74
     1
 75
     0
 76
     0
 77
     0
 78
     0
281
     0
 65
     1
110
0.0
120
0.0
130
0.0
111
1.0
121
0.0
131
0.0
112
0.0
122
1.0
132
0.0
 79
     0
146
0.0
 70
     0
  0
ENDTAB
  0
TABLE
  2
DIMSTYLE
  5
76
100
AcDbSymbolTable
100
AcDbDimStyleTable
 70
     0
  0
ENDTAB
  0
TABLE
  2
LAYER
  5
77
100
AcDbSymbolTable
 70
     2
  0
LAYER
  5
78
100
AcDbSymbolTableRecord
100
AcDbLayerTableRecord
  2
0
 70
    64
 62
     1
  6
CONTINUOUS
390
f
  0
LAYER
  5
79
100
AcDbSymbolTableRecord
100
AcDbLayerTableRecord
  2
td22.2_publ_bal_byggnad_y
 70
    64
 62
     1
  6
CONTINUOUS
390
f
  0
ENDTAB
  0
TABLE
  2
STYLE
  5
7a
100
AcDbSymbolTable
 70
     1
  0
STYLE
  5
7b
100
AcDbSymbolTableRecord
100
AcDbTextStyleTableRecord
  2
STANDARD
 70
    64
 40
0.0
 41
1.0
 50
0.0
 71
     0
 42
5.0
  3
romans.shx
  4

  0
ENDTAB
  0
ENDSEC
  0
SECTION
  2
BLOCKS
  0
BLOCK
  5
7c
330
6d
100
AcDbEntity
  8
0
100
AcDbBlockBegin
  2
*Model_Space
 70
     0
 10
0.0
 20
0.0
 30
0.0
  3
*Model_Space
  1

  0
ENDBLK
  5
7d
100
AcDbEntity
  8
0
100
AcDbBlockEnd
  0
BLOCK
  5
7e
330
6e
100
AcDbEntity
  8
0
100
AcDbBlockBegin
  2
*Paper_Space
 70
     0
 10
0.0
 20
0.0
 30
0.0
  3
*Paper_Space
  1

  0
ENDBLK
  5
7f
100
AcDbEntity
  8
0
100
AcDbBlockEnd
  0
BLOCK
  5
80
330
6f
100
AcDbEntity
  8
0
100
AcDbBlockBegin
  2
*Paper_Space0
 70
     0
 10
0.0
 20
0.0
 30
0.0
  3
*Paper_Space0
  1

  0
ENDBLK
  5
81
100
AcDbEntity
  8
0
100
AcDbBlockEnd
  0
ENDSEC
  0
SECTION
  2
ENTITIES
  0
LWPOLYLINE
  5
82
  8
TD22.2
100
AcDbEntity
100
AcDbPolyline
  6
CONTINUOUS
420
     0
 90
     5
 70
   129
 43
-1.0
 10
138740.25573100001201965
 20
6589635.47048399969935417
 10
138737.62779399999999441
 20
6589633.46249100007116795
 10
138733.42117099999450147
 20
6589638.96617200039327145
 10
138735.99115200000233017
 20
6589640.92965300008654594
 10
138740.25573100001201965
 20
6589635.47048399969935417
  0
LWPOLYLINE
  5
83
  8
TD22.2
100
AcDbEntity
100
AcDbPolyline
  6
CONTINUOUS
420
     0
 90
     5
 70
   129
 43
-1.0
 10
138740.25573100001201965
 20
6589635.47048399969935417
 10
138742.68174299999373034
 20
6589637.32459499966353178
 10
138738.47545399999944493
 20
6589642.8283129995688796
 10
138735.99115200000233017
 20
6589640.92965300008654594
 10
138740.25573100001201965
 20
6589635.47048399969935417
  0
LWPOLYLINE
  5
84
  8
TD22.2
100
AcDbEntity
100
AcDbPolyline
  6
CONTINUOUS
420
     0
 90
     5
 70
   129
 43
-1.0
 10
138648.68627499998547137
 20
6589530.39563699997961521
 10
138655.12690100001054816
 20
6589527.69938800018280745
 10
138653.90843700000550598
 20
6589524.79007699992507696
 10
138647.46885500001371838
 20
6589527.48728000000119209
 10
138648.68627499998547137
 20
6589530.39563699997961521
  0
LWPOLYLINE
  5
85
  8
TD22.2
100
AcDbEntity
100
AcDbPolyline
  6
CONTINUOUS
420
     0
 90
     9
 70
   129
 43
-1.0
 10
138785.35279599999194033
 20
6589589.22062600031495094
 10
138789.6695999999938067
 20
6589591.10716900043189526
 10
138793.21131499999319203
 20
6589583.00357499998062849
 10
138792.76402900001266971
 20
6589582.80851699970662594
 10
138785.75724300000001676
 20
6589579.74590300023555756
 10
138782.62814700001035817
 20
6589578.37840799987316132
 10
138779.08643100000335835
 20
6589586.48200100008398294
 10
138782.50148899998748675
 20
6589587.97474700026214123
 10
138785.35279599999194033
 20
6589589.22062600031495094
  0
LWPOLYLINE
  5
86
  8
TD22.2
100
AcDbEntity
100
AcDbPolyline
  6
CONTINUOUS
420
     0
 90
     9
 70
   129
 43
-1.0
 10
138719.15270899998722598
 20
6589588.38316699955612421
 10
138716.99806000001262873
 20
6589591.06224100012332201
 10
138723.82315599999856204
 20
6589596.55473699979484081
 10
138726.30299799999920651
 20
6589593.47256200015544891
 10
138727.86713599998620339
 20
6589591.52891600038856268
 10
138730.72146400000201538
 20
6589587.98234899993985891
 10
138723.89636799998697825
 20
6589582.48985300026834011
 10
138722.27248899999540299
 20
6589584.50727200042456388
 10
138719.15270899998722598
 20
6589588.38316699955612421
  0
LWPOLYLINE
  5
87
  8
TD22.2
100
AcDbEntity
100
AcDbPolyline
  6
CONTINUOUS
420
     0
 90
     5
 70
   129
 43
-1.0
 10
138729.68002199998591095
 20
6589626.36281100008636713
 10
138723.02169699998921715
 20
6589635.12859900016337633
 10
138729.49341100000310689
 20
6589640.04438100010156631
 10
138736.1517349999921862
 20
6589631.27859300002455711
 10
138729.68002199998591095
 20
6589626.36281100008636713
  0
LWPOLYLINE
  5
88
  8
TD22.2
100
AcDbEntity
100
AcDbPolyline
  6
CONTINUOUS
420
     0
 90
    11
 70
   129
 43
-1.0
 10
138769.81957799999509007
 20
6589612.20813599973917007
 10
138767.70236299998941831
 20
6589610.52468900009989738
 10
138767.4768890000123065
 20
6589610.80816399957984686
 10
138765.57459999999264255
 20
6589613.20054600015282631
 10
138762.69468099999357946
 20
6589616.82335100043565035
 10
138765.82122099999105558
 20
6589619.31020000018179417
 10
138767.72451199998613447
 20
6589620.82309999968856573
 10
138771.34731700000702403
 20
6589623.70301899965852499
 10
138776.35499900000286289
 20
6589617.4043570002540946
 10
138773.69475900000543334
 20
6589615.28990499954670668
 10
138769.81957799999509007
 20
6589612.20813599973917007
  0
LWPOLYLINE
  5
89
  8
TD22.2
100
AcDbEntity
100
AcDbPolyline
  6
CONTINUOUS
420
     0
 90
     9
 70
   129
 43
-1.0
 10
138706.93933299998752773
 20
6589613.08296400029212236
 10
138709.1429049999860581
 20
6589610.22348500043153763
 10
138701.64939599999343045
 20
6589604.44980099983513355
 10
138699.16114800001378171
 20
6589607.67851800005882978
 10
138697.17514800000935793
 20
6589610.25688000023365021
 10
138695.06707300001289696
 20
6589612.99191599991172552
 10
138702.5605830000131391
 20
6589618.76559999957680702
 10
138704.96273699999437667
 20
6589615.64788599964231253
 10
138706.93933299998752773
 20
6589613.08296400029212236
  0
LWPOLYLINE
  5
8a
  8
TD22.2
100
AcDbEntity
100
AcDbPolyline
  6
CONTINUOUS
420
     0
 90
     5
 70
   129
 43
-1.0
 10
138717.90471400000387803
 20
6589626.82300600036978722
 10
138722.37975600000936538
 20
6589630.2641399996355176
 10
138726.58873099999618717
 20
6589624.79038599971681833
 10
138722.11269000000902452
 20
6589621.34929700009524822
 10
138717.90471400000387803
 20
6589626.82300600036978722
  0
LWPOLYLINE
  5
8b
  8
TD22.2
100
AcDbEntity
100
AcDbPolyline
  6
CONTINUOUS
420
     0
 90
     5
 70
   129
 43
-1.0
 10
138687.97567099999287166
 20
6589524.26818499993532896
 10
138677.89103299999260344
 20
6589528.67355300020426512
 10
138681.37983399999211542
 20
6589536.66017299983650446
 10
138691.46542600000975654
 20
6589532.2537609999999404
 10
138687.97567099999287166
 20
6589524.26818499993532896
  0
LWPOLYLINE
  5
8c
  8
TD22.2
100
AcDbEntity
100
AcDbPolyline
  6
CONTINUOUS
420
     0
 90
     5
 70
   129
 43
-1.0
 10
138657.39852700001210906
 20
6589530.43104000017046928
 10
138646.52761499999905936
 20
6589534.87188300024718046
 10
138649.81045600000652485
 20
6589542.90884300041943789
 10
138660.68136799999047071
 20
6589538.46799900010228157
 10
138657.39852700001210906
 20
6589530.43104000017046928
  0
LWPOLYLINE
  5
8d
  8
TD22.2
100
AcDbEntity
100
AcDbPolyline
  6
CONTINUOUS
420
     0
 90
     5
 70
   129
 43
-1.0
 10
138664.3581619999895338
 20
6589546.49419199954718351
 10
138653.52557599998544902
 20
6589551.07446299958974123
 10
138656.85964800001238473
 20
6589558.95994499977678061
 10
138667.69318800000473857
 20
6589554.37862899992614985
 10
138664.3581619999895338
 20
6589546.49419199954718351
  0
LWPOLYLINE
  5
8e
  8
TD22.2
100
AcDbEntity
100
AcDbPolyline
  6
CONTINUOUS
420
     0
 90
     5
 70
   129
 43
-1.0
 10
138681.20876400000997819
 20
6589589.162066999822855
 10
138674.92180899999220856
 20
6589591.73625699989497662
 10
138676.1953370000119321
 20
6589594.84530800022184849
 10
138682.48229200000059791
 20
6589592.27111800014972687
 10
138681.20876400000997819
 20
6589589.162066999822855
  0
LWPOLYLINE
  5
8f
  8
TD22.2
100
AcDbEntity
100
AcDbPolyline
  6
CONTINUOUS
420
     0
 90
     7
 70
   129
 43
-1.0
 10
138714.05357099999673665
 20
6589580.8946749996393919
 10
138716.94006500000250526
 20
6589577.17346400022506714
 10
138709.97175600001355633
 20
6589571.76851900015026331
 10
138703.18923600000562146
 20
6589580.51087700016796589
 10
138710.1575439999869559
 20
6589585.91582200024276972
 10
138712.58617799999774434
 20
6589582.78590200003236532
 10
138714.05357099999673665
 20
6589580.8946749996393919
  0
LWPOLYLINE
  5
90
  8
TD22.2
100
AcDbEntity
100
AcDbPolyline
  6
CONTINUOUS
420
     0
 90
     5
 70
   129
 43
-1.0
 10
138760.26561000000219792
 20
6589531.23199700005352497
 10
138758.91105699999025092
 20
6589542.59162800014019012
 10
138769.97679399998742156
 20
6589543.91138700023293495
 10
138771.33134800000698306
 20
6589532.55175700038671494
 10
138760.26561000000219792
 20
6589531.23199700005352497
  0
LWPOLYLINE
  5
91
  8
TD22.2
100
AcDbEntity
100
AcDbPolyline
  6
CONTINUOUS
420
     0
 90
     5
 70
   129
 43
-1.0
 10
138696.21984599999268539
 20
6589601.26496800035238266
 10
138692.03259399998933077
 20
6589606.55453899968415499
 10
138694.4692440000071656
 20
6589608.48386299982666969
 10
138698.65649600001052022
 20
6589603.19429199956357479
 10
138696.21984599999268539
 20
6589601.26496800035238266
  0
LWPOLYLINE
  5
92
  8
TD22.2
100
AcDbEntity
100
AcDbPolyline
  6
CONTINUOUS
420
     0
 90
     5
 70
   129
 43
-1.0
 10
138709.87063799999305047
 20
6589611.95260400045663118
 10
138705.76604700001189485
 20
6589617.3435620004311204
 10
138708.38477699999930337
 20
6589619.3367510000243783
 10
138712.48936800000956282
 20
6589613.94579300004988909
 10
138709.87063799999305047
 20
6589611.95260400045663118
  0
LWPOLYLINE
  5
93
  8
TD22.2
100
AcDbEntity
100
AcDbPolyline
  6
CONTINUOUS
420
     0
 90
     5
 70
   129
 43
-1.0
 10
138701.8574629999930039
 20
6589556.42920999974012375
 10
138691.66214599998784252
 20
6589560.73345599975436926
 10
138695.1077930000028573
 20
6589568.89521399978548288
 10
138705.30311000000801869
 20
6589564.59096900001168251
 10
138701.8574629999930039
 20
6589556.42920999974012375
  0
LWPOLYLINE
  5
94
  8
TD22.2
100
AcDbEntity
100
AcDbPolyline
  6
CONTINUOUS
420
     0
 90
     5
 70
   129
 43
-1.0
 10
138681.0234679999994114
 20
6589508.12561200000345707
 10
138670.92994999999064021
 20
6589512.60045600030571222
 10
138674.54657299999962561
 20
6589520.75750499963760376
 10
138684.63909099999000318
 20
6589516.28270599991083145
 10
138681.0234679999994114
 20
6589508.12561200000345707
  0
LWPOLYLINE
  5
95
  8
TD22.2
100
AcDbEntity
100
AcDbPolyline
  6
CONTINUOUS
420
     0
 90
     6
 70
   129
 43
-1.0
 10
138730.88391299999784678
 20
6589601.98954799957573414
 10
138737.64357899999595247
 20
6589607.31881199963390827
 10
138744.45476299998699687
 20
6589598.67927599977701902
 10
138737.69509699998889118
 20
6589593.35001299995929003
 10
138735.84109400000306778
 20
6589595.70317499991506338
 10
138730.88391299999784678
 20
6589601.98954799957573414
  0
LWPOLYLINE
  5
96
  8
TD22.2
100
AcDbEntity
100
AcDbPolyline
  6
CONTINUOUS
420
     0
 90
     7
 70
   129
 43
-1.0
 10
138722.11269000000902452
 20
6589621.34929700009524822
 10
138722.75195899998652749
 20
6589620.51856699958443642
 10
138715.69882600000710227
 20
6589615.09742700029164553
 10
138708.65872800000943244
 20
6589624.25485500041395426
 10
138715.71086200000718236
 20
6589629.67603900004178286
 10
138717.90471400000387803
 20
6589626.82300600036978722
 10
138722.11269000000902452
 20
6589621.34929700009524822
  0
LWPOLYLINE
  5
97
  8
TD22.2
100
AcDbEntity
100
AcDbPolyline
  6
CONTINUOUS
420
     0
 90
     5
 70
   129
 43
-1.0
 10
138662.46800500000244938
 20
6589562.62425300013273954
 10
138668.84834699999191798
 20
6589559.85663999989628792
 10
138667.5242570000118576
 20
6589556.80292899999767542
 10
138661.14391499999328516
 20
6589559.57054099999368191
 10
138662.46800500000244938
 20
6589562.62425300013273954
  0
LWPOLYLINE
  5
98
  8
TD22.2
100
AcDbEntity
100
AcDbPolyline
  6
CONTINUOUS
420
     0
 90
     5
 70
   129
 43
-1.0
 10
138741.29018999999971129
 20
6589558.47134600020945072
 10
138737.56797699999879114
 20
6589556.27266000024974346
 10
138735.64182600000640377
 20
6589559.53407999966293573
 10
138739.36399400001391768
 20
6589561.73176699969917536
 10
138741.29018999999971129
 20
6589558.47134600020945072
  0
LWPOLYLINE
  5
99
  8
TD22.2
100
AcDbEntity
100
AcDbPolyline
  6
CONTINUOUS
420
     0
 90
    16
 70
   129
 43
-1.0
 10
138747.38471799998660572
 20
6589649.50754700042307377
 10
138749.75141600001370534
 20
6589646.49154399987310171
 10
138749.96730499999830499
 20
6589646.21750999987125397
 10
138751.60128699999768287
 20
6589644.13556400034576654
 10
138751.81049800000619143
 20
6589643.86883999966084957
 10
138752.10775500000454485
 20
6589643.49002300016582012
 10
138745.49145199998747557
 20
6589638.29845200013369322
 10
138745.06591899998602457
 20
6589637.96425999980419874
 10
138744.60674600000493228
 20
6589638.54860099963843822
 10
138743.35338700001011603
 20
6589640.14685800019651651
 10
138741.89449700000113808
 20
6589642.00466500036418438
 10
138740.56722200001240708
 20
6589643.69535600021481514
 10
138737.94678999998723157
 20
6589647.03415200021117926
 10
138744.40442000000621192
 20
6589652.1037389999255538
 10
138744.98867099999915808
 20
6589652.5609139995649457
 10
138747.38471799998660572
 20
6589649.50754700042307377
  0
LWPOLYLINE
  5
9a
  8
TD22.2
100
AcDbEntity
100
AcDbPolyline
  6
CONTINUOUS
420
     0
 90
     5
 70
   129
 43
-1.0
 10
138650.35005800001090392
 20
6589514.39592199958860874
 10
138640.10735299999942072
 20
6589518.62621999997645617
 10
138643.35655500000575557
 20
6589526.49450900033116341
 10
138653.60021400000550784
 20
6589522.26316700037568808
 10
138650.35005800001090392
 20
6589514.39592199958860874
  0
LWPOLYLINE
  5
9b
  8
TD22.2
100
AcDbEntity
100
AcDbPolyline
  6
CONTINUOUS
420
     0
 90
     7
 70
   129
 43
-1.0
 10
138761.13964199999463744
 20
6589554.33219899982213974
 10
138756.82851900000241585
 20
6589553.1041289996355772
 10
138754.37228999999933876
 20
6589561.72437500022351742
 10
138765.12123799999244511
 20
6589564.78734199982136488
 10
138767.57742300000973046
 20
6589556.1660970002412796
 10
138764.48431100000743754
 20
6589555.28552000038325787
 10
138761.13964199999463744
 20
6589554.33219899982213974
  0
LWPOLYLINE
  5
9c
  8
TD22.2
100
AcDbEntity
100
AcDbPolyline
  6
CONTINUOUS
420
     0
 90
     5
 70
   129
 43
-1.0
 10
138688.12840799998957664
 20
6589593.84340399969369173
 10
138681.33417600000393577
 20
6589602.43712699972093105
 10
138688.22540699999080971
 20
6589607.88659499958157539
 10
138695.02059299999382347
 20
6589599.2918290002271533
 10
138688.12840799998957664
 20
6589593.84340399969369173
  0
LWPOLYLINE
  5
9d
  8
TD22.2
100
AcDbEntity
100
AcDbPolyline
  6
CONTINUOUS
420
     0
 90
     5
 70
   129
 43
-1.0
 10
138759.90619199999491684
 20
6589514.32346200011670589
 10
138759.93435200001113117
 20
6589522.53629199974238873
 10
138771.06594000000040978
 20
6589522.49758000019937754
 10
138771.03678100000252016
 20
6589514.28479500021785498
 10
138759.90619199999491684
 20
6589514.32346200011670589
  0
LWPOLYLINE
  5
9e
  8
TD22.2
100
AcDbEntity
100
AcDbPolyline
  6
CONTINUOUS
420
     0
 90
     5
 70
   129
 43
-1.0
 10
138681.38904499998898245
 20
6589586.74526400025933981
 10
138677.88593099999707192
 20
6589578.64115899987518787
 10
138667.42905899998731911
 20
6589583.16143199987709522
 10
138670.93217300000833347
 20
6589591.26553799957036972
 10
138681.38904499998898245
 20
6589586.74526400025933981
  0
LWPOLYLINE
  5
9f
  8
TD22.2
100
AcDbEntity
100
AcDbPolyline
  6
CONTINUOUS
420
     0
 90
    11
 70
   129
 43
-1.0
 10
138777.08400400000391528
 20
6589605.22701200004667044
 10
138781.43091100000310689
 20
6589607.80296100024133921
 10
138781.7555630000133533
 20
6589607.25472300034016371
 10
138783.40131300000939518
 20
6589604.47947799973189831
 10
138785.70940699998755008
 20
6589600.5861449996009469
 10
138775.78431499999715015
 20
6589594.70392800029367208
 10
138775.62714600001345389
 20
6589594.97030599974095821
 10
138773.85117099998751655
 20
6589597.96566300000995398
 10
138771.50681799999438226
 20
6589601.92069900035858154
 10
138774.94961899999179877
 20
6589603.96180200017988682
 10
138777.08400400000391528
 20
6589605.22701200004667044
  0
LWPOLYLINE
  5
a0
  8
TD22.2
100
AcDbEntity
100
AcDbPolyline
  6
CONTINUOUS
420
     0
 90
     5
 70
   129
 43
-1.0
 10
138695.1744159999943804
 20
6589540.54980000015348196
 10
138684.90835099999094382
 20
6589544.70606900006532669
 10
138688.0889399999869056
 20
6589552.56243500020354986
 10
138698.35500499999034218
 20
6589548.40616600029170513
 10
138695.1744159999943804
 20
6589540.54980000015348196
  0
LWPOLYLINE
  5
a1
  8
TD22.2
100
AcDbEntity
100
AcDbPolyline
  6
CONTINUOUS
420
     0
 90
     5
 70
   129
 43
-1.0
 10
138655.5180289999989327
 20
6589546.59770699962973595
 10
138661.97068100000615232
 20
6589543.92394000012427568
 10
138660.71801499999128282
 20
6589540.90004299953579903
 10
138654.26536200000555255
 20
6589543.57380899973213673
 10
138655.5180289999989327
 20
6589546.59770699962973595
  0
LWPOLYLINE
  5
a2
  8
TD22.2
100
AcDbEntity
100
AcDbPolyline
  6
CONTINUOUS
420
     0
 90
     8
 70
   129
 43
-1.0
 10
138669.9011680000112392
 20
6589572.56327500008046627
 10
138674.30392199999187142
 20
6589570.7188100004568696
 10
138674.14011700000264682
 20
6589570.32775899954140186
 10
138670.96161599998595193
 20
6589562.73959599994122982
 10
138660.7736670000012964
 20
6589567.00746999960392714
 10
138664.11597300000721589
 20
6589574.98668400011956692
 10
138667.90857900000992231
 20
6589573.39800100028514862
 10
138669.9011680000112392
 20
6589572.56327500008046627
  0
LWPOLYLINE
  5
a3
  8
TD22.2
100
AcDbEntity
100
AcDbPolyline
  6
CONTINUOUS
420
     0
 90
     5
 70
   129
 43
-1.0
 10
138674.47032799999578856
 20
6589573.09794799983501434
 10
138668.12848300000769086
 20
6589575.63156600017100573
 10
138669.36301000000094064
 20
6589578.71935100015252829
 10
138675.70385600000736304
 20
6589576.18577800039201975
 10
138674.47032799999578856
 20
6589573.09794799983501434
  0
ENDSEC
0
SECTION
2
OBJECTS
0
DICTIONARY
5
C
330
0
100
AcDbDictionary
281
   1
3
ACAD_GROUP
350
D
3
ACAD_LAYOUT
350
1A
3
ACAD_MLEADERSTYLE
350
43
3
ACAD_MLINESTYLE
350
17
3
ACAD_PLOTSETTINGS
350
19
3
ACAD_PLOTSTYLENAME
350
E
3
ACAD_TABLESTYLE
350
42
3
ACAD_VISUALSTYLE
350
2A
0
DICTIONARY
5
D
102
{ACAD_REACTORS
330
C
102
}
330
C
100
AcDbDictionary
281
   1
0
DICTIONARY
5
1A
102
{ACAD_REACTORS
330
C
102
}
330
C
100
AcDbDictionary
281
   1
3
Layout1
350
1E
3
Layout2
350
26
3
Model
350
22
0
DICTIONARY
5
43
102
{ACAD_REACTORS
330
C
102
}
330
C
100
AcDbDictionary
281
   1
0
DICTIONARY
5
17
102
{ACAD_REACTORS
330
C
102
}
330
C
100
AcDbDictionary
281
   1
3
Standard
350
18
0
DICTIONARY
5
19
102
{ACAD_REACTORS
330
C
102
}
330
C
100
AcDbDictionary
281
   1
0
ACDBDICTIONARYWDFLT
5
E
102
{ACAD_REACTORS
330
C
102
}
330
C
100
AcDbDictionary
281
   1
3
Normal
350
F
100
AcDbDictionaryWithDefault
340
F
0
DICTIONARY
5
42
102
{ACAD_REACTORS
330
C
102
}
330
C
100
AcDbDictionary
281
   1
0
DICTIONARY
5
2A
102
{ACAD_REACTORS
330
C
102
}
330
C
100
AcDbDictionary
281
   1
3
2dWireframe
350
2F
3
3D Hidden
350
31
3
3dWireframe
350
30
3
Basic
350
32
3
Brighten
350
36
3
ColorChange
350
3A
3
Conceptual
350
34
3
Dim
350
35
3
Facepattern
350
39
3
Flat
350
2B
3
FlatWithEdges
350
2C
3
Gouraud
350
2D
3
GouraudWithEdges
350
2E
3
Linepattern
350
38
3
Realistic
350
33
3
Thicken
350
37
0
LAYOUT
5
1E
102
{ACAD_REACTORS
330
1A
102
}
330
1A
100
AcDbPlotSettings
1

2
none_device
4

6

40
0.0
41
0.0
42
0.0
43
0.0
44
0.0
45
0.0
46
0.0
47
0.0
48
0.0
49
0.0
140
0.0
141
0.0
142
1.0
143
1.0
70
 688
72
   0
73
   0
74
   5
7

75
  16
76
   0
77
   2
78
 300
147
1.0
148
0.0
149
0.0
100
AcDbLayout
1
Layout1
70
   1
71
   1
10
0.0
20
0.0
11
12.0
21
9.0
12
0.0
22
0.0
32
0.0
14
1.000000000000000E+20
24
1.000000000000000E+20
34
1.000000000000000E+20
15
-1.000000000000000E+20
25
-1.000000000000000E+20
35
-1.000000000000000E+20
146
0.0
13
0.0
23
0.0
33
0.0
16
1.0
26
0.0
36
0.0
17
0.0
27
1.0
37
0.0
76
   0
330
1B
0
LAYOUT
5
26
102
{ACAD_REACTORS
330
1A
102
}
330
1A
100
AcDbPlotSettings
1

2
none_device
4

6

40
0.0
41
0.0
42
0.0
43
0.0
44
0.0
45
0.0
46
0.0
47
0.0
48
0.0
49
0.0
140
0.0
141
0.0
142
1.0
143
1.0
70
 688
72
   0
73
   0
74
   5
7

75
  16
76
   0
77
   2
78
 300
147
1.0
148
0.0
149
0.0
100
AcDbLayout
1
Layout2
70
   1
71
   2
10
0.0
20
0.0
11
0.0
21
0.0
12
0.0
22
0.0
32
0.0
14
0.0
24
0.0
34
0.0
15
0.0
25
0.0
35
0.0
146
0.0
13
0.0
23
0.0
33
0.0
16
1.0
26
0.0
36
0.0
17
0.0
27
1.0
37
0.0
76
   0
330
23
0
LAYOUT
5
22
102
{ACAD_REACTORS
330
1A
102
}
330
1A
100
AcDbPlotSettings
1

2
none_device
4

6

40
0.0
41
0.0
42
0.0
43
0.0
44
0.0
45
0.0
46
0.0
47
0.0
48
0.0
49
0.0
140
0.0
141
0.0
142
1.0
143
1.0
70
1712
72
   0
73
   0
74
   0
7

75
   0
76
   0
77
   2
78
 300
147
1.0
148
0.0
149
0.0
100
AcDbLayout
1
Model
70
   1
71
   0
10
0.0
20
0.0
11
12.0
21
9.0
12
0.0
22
0.0
32
0.0
14
30.0
24
49.75
34
0.0
15
130.5
25
163.1318914119703
35
0.0
146
0.0
13
0.0
23
0.0
33
0.0
16
1.0
26
0.0
36
0.0
17
0.0
27
1.0
37
0.0
76
   0
330
1F
331
29
0
MLINESTYLE
5
18
102
{ACAD_REACTORS
330
17
102
}
330
17
100
AcDbMlineStyle
2
Standard
70
   0
3

62
 256
51
90.0
52
90.0
71
   2
49
0.5
62
 256
6
BYLAYER
49
-0.5
62
 256
6
BYLAYER
0
ACDBPLACEHOLDER
5
F
102
{ACAD_REACTORS
330
E
102
}
330
E
0
VISUALSTYLE
5
2F
102
{ACAD_REACTORS
330
2A
102
}
330
2A
100
AcDbVisualStyle
2
2dWireframe
70
   4
71
   0
72
   2
73
   0
90
      0
40
-0.6
41
-30.0
62
   5
63
   7
421
16777215
74
   1
91
      4
64
   7
65
 257
75
   1
175
   1
42
1.0
92
      0
66
 257
43
1.0
76
   1
77
   6
78
   2
67
   7
79
   5
170
   0
171
   0
290
   0
174
   0
93
      1
44
0.0
173
   0
291
   0
45
0.0
1001
ACAD
1000
AcDbSavedByObjectVersion
1070
   0
0
VISUALSTYLE
5
31
102
{ACAD_REACTORS
330
2A
102
}
330
2A
100
AcDbVisualStyle
2
3D Hidden
70
   6
71
   1
72
   2
73
   2
90
      0
40
-0.6
41
-30.0
62
   5
63
   7
421
16777215
74
   2
91
      2
64
   7
65
 257
75
   2
175
   1
42
40.0
92
      0
66
 257
43
1.0
76
   1
77
   6
78
   2
67
   7
79
   3
170
   0
171
   0
290
   0
174
   0
93
      1
44
0.0
173
   0
291
   0
45
0.0
1001
ACAD
1000
AcDbSavedByObjectVersion
1070
   0
0
VISUALSTYLE
5
30
102
{ACAD_REACTORS
330
2A
102
}
330
2A
100
AcDbVisualStyle
2
3dWireframe
70
   5
71
   0
72
   2
73
   0
90
      0
40
-0.6
41
-30.0
62
   5
63
   7
421
16777215
74
   1
91
      4
64
   7
65
 257
75
   1
175
   1
42
1.0
92
      0
66
 257
43
1.0
76
   1
77
   6
78
   2
67
   7
79
   5
170
   0
171
   0
290
   0
174
   0
93
      1
44
0.0
173
   0
291
   0
45
0.0
1001
ACAD
1000
AcDbSavedByObjectVersion
1070
   0
0
VISUALSTYLE
5
32
102
{ACAD_REACTORS
330
2A
102
}
330
2A
100
AcDbVisualStyle
2
Basic
70
   7
71
   1
72
   0
73
   1
90
      0
40
-0.6
41
-30.0
62
   5
63
   7
421
16777215
74
   0
91
      4
64
   7
65
 257
75
   1
175
   1
42
1.0
92
      8
66
   7
43
1.0
76
   1
77
   6
78
   2
67
   7
79
   5
170
   0
171
   0
290
   0
174
   0
93
      1
44
0.0
173
   0
291
   1
45
0.0
1001
ACAD
1000
AcDbSavedByObjectVersion
1070
   0
0
VISUALSTYLE
5
36
102
{ACAD_REACTORS
330
2A
102
}
330
2A
100
AcDbVisualStyle
2
Brighten
70
  12
71
   2
72
   2
73
   0
90
      0
40
-0.6
41
-30.0
62
   5
63
   7
421
16777215
74
   1
91
      4
64
   7
65
 257
75
   1
175
   1
42
1.0
92
      8
66
   7
43
1.0
76
   1
77
   6
78
   2
67
   7
79
   5
170
   0
171
   0
290
   0
174
   0
93
      1
44
50.0
173
   0
291
   1
45
0.0
1001
ACAD
1000
AcDbSavedByObjectVersion
1070
   0
0
VISUALSTYLE
5
3A
102
{ACAD_REACTORS
330
2A
102
}
330
2A
100
AcDbVisualStyle
2
ColorChange
70
  16
71
   2
72
   2
73
   3
90
      0
40
-0.6
41
-30.0
62
   5
63
   8
421
8421504
74
   1
91
      4
64
   7
65
 257
75
   1
175
   1
42
1.0
92
      8
66
   8
424
8421504
43
1.0
76
   1
77
   6
78
   2
67
   7
79
   5
170
   0
171
   0
290
   0
174
   0
93
      1
44
0.0
173
   0
291
   1
45
0.0
1001
ACAD
1000
AcDbSavedByObjectVersion
1070
   0
0
VISUALSTYLE
5
34
102
{ACAD_REACTORS
330
2A
102
}
330
2A
100
AcDbVisualStyle
2
Conceptual
70
   9
71
   3
72
   2
73
   0
90
      0
40
-0.6
41
-30.0
62
   5
63
   7
421
16777215
74
   2
91
      2
64
   7
65
 257
75
   1
175
   1
42
40.0
92
      8
66
   7
43
1.0
76
   1
77
   6
78
   2
67
   7
79
   3
170
   0
171
   0
290
   0
174
   0
93
      1
44
0.0
173
   0
291
   0
45
0.0
1001
ACAD
1000
AcDbSavedByObjectVersion
1070
   0
0
VISUALSTYLE
5
35
102
{ACAD_REACTORS
330
2A
102
}
330
2A
100
AcDbVisualStyle
2
Dim
70
  11
71
   2
72
   2
73
   0
90
      0
40
-0.6
41
-30.0
62
   5
63
   7
421
16777215
74
   1
91
      4
64
   7
65
 257
75
   1
175
   1
42
1.0
92
      8
66
   7
43
1.0
76
   1
77
   6
78
   2
67
   7
79
   5
170
   0
171
   0
290
   0
174
   0
93
      1
44
-50.0
173
   0
291
   1
45
0.0
1001
ACAD
1000
AcDbSavedByObjectVersion
1070
   0
0
VISUALSTYLE
5
39
102
{ACAD_REACTORS
330
2A
102
}
330
2A
100
AcDbVisualStyle
2
Facepattern
70
  15
71
   2
72
   2
73
   0
90
      0
40
-0.6
41
-30.0
62
   5
63
   7
421
16777215
74
   1
91
      4
64
   7
65
 257
75
   1
175
   1
42
1.0
92
      8
66
   7
43
1.0
76
   1
77
   6
78
   2
67
   7
79
   5
170
   0
171
   0
290
   0
174
   0
93
      1
44
0.0
173
   0
291
   1
45
0.0
1001
ACAD
1000
AcDbSavedByObjectVersion
1070
   0
0
VISUALSTYLE
5
2B
102
{ACAD_REACTORS
330
2A
102
}
330
2A
100
AcDbVisualStyle
2
Flat
70
   0
71
   2
72
   1
73
   1
90
      2
40
-0.6
41
30.0
62
   5
63
   7
421
16777215
74
   0
91
      4
64
   7
65
 257
75
   1
175
   1
42
1.0
92
      8
66
   7
43
1.0
76
   1
77
   6
78
   2
67
   7
79
   5
170
   0
171
   0
290
   0
174
   0
93
     13
44
0.0
173
   0
291
   1
45
0.0
1001
ACAD
1000
AcDbSavedByObjectVersion
1070
   0
0
VISUALSTYLE
5
2C
102
{ACAD_REACTORS
330
2A
102
}
330
2A
100
AcDbVisualStyle
2
FlatWithEdges
70
   1
71
   2
72
   1
73
   1
90
      2
40
-0.6
41
30.0
62
   5
63
   7
421
16777215
74
   1
91
      4
64
   7
65
 257
75
   1
175
   1
42
1.0
92
      0
66
 257
43
1.0
76
   1
77
   6
78
   2
67
   7
79
   5
170
   0
171
   0
290
   0
174
   0
93
     13
44
0.0
173
   0
291
   1
45
0.0
1001
ACAD
1000
AcDbSavedByObjectVersion
1070
   0
0
VISUALSTYLE
5
2D
102
{ACAD_REACTORS
330
2A
102
}
330
2A
100
AcDbVisualStyle
2
Gouraud
70
   2
71
   2
72
   2
73
   1
90
      2
40
-0.6
41
30.0
62
   5
63
   7
421
16777215
74
   0
91
      4
64
   7
65
 257
75
   1
175
   1
42
1.0
92
      0
66
   7
43
1.0
76
   1
77
   6
78
   2
67
   7
79
   5
170
   0
171
   0
290
   0
174
   0
93
     13
44
0.0
173
   0
291
   1
45
0.0
1001
ACAD
1000
AcDbSavedByObjectVersion
1070
   0
0
VISUALSTYLE
5
2E
102
{ACAD_REACTORS
330
2A
102
}
330
2A
100
AcDbVisualStyle
2
GouraudWithEdges
70
   3
71
   2
72
   2
73
   1
90
      2
40
-0.6
41
30.0
62
   5
63
   7
421
16777215
74
   1
91
      4
64
   7
65
 257
75
   1
175
   1
42
1.0
92
      0
66
 257
43
1.0
76
   1
77
   6
78
   2
67
   7
79
   5
170
   0
171
   0
290
   0
174
   0
93
     13
44
0.0
173
   0
291
   1
45
0.0
1001
ACAD
1000
AcDbSavedByObjectVersion
1070
   0
0
VISUALSTYLE
5
38
102
{ACAD_REACTORS
330
2A
102
}
330
2A
100
AcDbVisualStyle
2
Linepattern
70
  14
71
   2
72
   2
73
   0
90
      0
40
-0.6
41
-30.0
62
   5
63
   7
421
16777215
74
   1
91
      4
64
   7
65
 257
75
   7
175
   7
42
1.0
92
      8
66
   7
43
1.0
76
   1
77
   6
78
   2
67
   7
79
   5
170
   0
171
   0
290
   0
174
   0
93
      1
44
0.0
173
   0
291
   1
45
0.0
1001
ACAD
1000
AcDbSavedByObjectVersion
1070
   0
0
VISUALSTYLE
5
33
102
{ACAD_REACTORS
330
2A
102
}
330
2A
100
AcDbVisualStyle
2
Realistic
70
   8
71
   2
72
   2
73
   0
90
      0
40
-0.6
41
-30.0
62
   5
63
   7
421
16777215
74
   1
91
      0
64
   7
65
 257
75
   1
175
   1
42
1.0
92
      8
66
   8
424
7895160
43
1.0
76
   1
77
   6
78
   2
67
   7
79
   5
170
   0
171
   0
290
   0
174
   0
93
     13
44
0.0
173
   0
291
   0
45
0.0
1001
ACAD
1000
AcDbSavedByObjectVersion
1070
   0
0
VISUALSTYLE
5
37
102
{ACAD_REACTORS
330
2A
102
}
330
2A
100
AcDbVisualStyle
2
Thicken
70
  13
71
   2
72
   2
73
   0
90
      0
40
-0.6
41
-30.0
62
   5
63
   7
421
16777215
74
   1
91
      4
64
   7
65
 257
75
   1
175
   1
42
1.0
92
     12
66
   7
43
1.0
76
   1
77
   6
78
   2
67
   7
79
   5
170
   0
171
   0
290
   0
174
   0
93
      1
44
0.0
173
   0
291
   1
45
0.0
1001
ACAD
1000
AcDbSavedByObjectVersion
1070
   0
0
ENDSEC
  0
EOF
